<svg viewBox="0 0 800 1000" xmlns="http://www.w3.org/2000/svg">
    <!-- Styles -->
    <defs>
        <marker id="arrowhead" markerWidth="10" markerHeight="7" refX="9" refY="3.5" orient="auto">
            <polygon points="0 0, 10 3.5, 0 7" fill="#f4b677"/>
        </marker>
    </defs>
    
    <!-- Pre-incorporation -->
    <rect x="300" y="20" width="200" height="60" rx="10" fill="#e6f3ff" stroke="#f4b677" stroke-width="2"/>
    <text x="400" y="55" text-anchor="middle">Pre-incorporation</text>
    
    <rect x="300" y="120" width="200" height="60" rx="10" fill="#e6f3ff" stroke="#f4b677" stroke-width="2"/>
    <text x="400" y="155" text-anchor="middle">Due Diligence &amp; Fees</text>
    
    <rect x="300" y="220" width="200" height="60" rx="10" fill="#e6f3ff" stroke="#f4b677" stroke-width="2"/>
    <text x="400" y="255" text-anchor="middle">Planning Phase</text>
    
    <!-- Decision Diamond -->
    <path d="M300 350 L400 400 L500 350 L400 300 Z" fill="#fff4dd" stroke="#f4b677" stroke-width="2"/>
    <text x="400" y="360" text-anchor="middle">Setup Type</text>
    
    <!-- Free Zone Path -->
    <rect x="100" y="450" width="200" height="60" rx="10" fill="#f0f9ff" stroke="#f4b677" stroke-width="2"/>
    <text x="200" y="485" text-anchor="middle">Free Zone Setup</text>
    
    <rect x="100" y="550" width="200" height="60" rx="10" fill="#f0f9ff" stroke="#f4b677" stroke-width="2"/>
    <text x="200" y="585" text-anchor="middle">Portal Account</text>
    
    <rect x="100" y="650" width="200" height="60" rx="10" fill="#f0f9ff" stroke="#f4b677" stroke-width="2"/>
    <text x="200" y="685" text-anchor="middle">License &amp; Registration</text>
    
    <!-- Mainland Path -->
    <rect x="500" y="450" width="200" height="60" rx="10" fill="#fff0f0" stroke="#f4b677" stroke-width="2"/>
    <text x="600" y="485" text-anchor="middle">Mainland Setup</text>
    
    <rect x="500" y="550" width="200" height="60" rx="10" fill="#fff0f0" stroke="#f4b677" stroke-width="2"/>
    <text x="600" y="585" text-anchor="middle">DED Application</text>
    
    <rect x="500" y="650" width="200" height="60" rx="10" fill="#fff0f0" stroke="#f4b677" stroke-width="2"/>
    <text x="600" y="685" text-anchor="middle">Trade License</text>
    
    <!-- Post-incorporation -->
    <rect x="300" y="800" width="200" height="60" rx="10" fill="#f0fff0" stroke="#f4b677" stroke-width="2"/>
    <text x="400" y="835" text-anchor="middle">Bank Account</text>
    
    <rect x="300" y="900" width="200" height="60" rx="10" fill="#f0fff0" stroke="#f4b677" stroke-width="2"/>
    <text x="400" y="935" text-anchor="middle">Government Registration</text>
    
    <!-- Arrows -->
    <line x1="400" y1="80" x2="400" y2="120" stroke="#f4b677" stroke-width="2" marker-end="url(#arrowhead)"/>
    <line x1="400" y1="180" x2="400" y2="220" stroke="#f4b677" stroke-width="2" marker-end="url(#arrowhead)"/>
    <line x1="400" y1="280" x2="400" y2="300" stroke="#f4b677" stroke-width="2" marker-end="url(#arrowhead)"/>
    
    <!-- Decision Arrows -->
    <path d="M300 350 Q200 350 200 450" fill="none" stroke="#f4b677" stroke-width="2" marker-end="url(#arrowhead)"/>
    <path d="M500 350 Q600 350 600 450" fill="none" stroke="#f4b677" stroke-width="2" marker-end="url(#arrowhead)"/>
    
    <!-- Free Zone Path Arrows -->
    <line x1="200" y1="510" x2="200" y2="550" stroke="#f4b677" stroke-width="2" marker-end="url(#arrowhead)"/>
    <line x1="200" y1="610" x2="200" y2="650" stroke="#f4b677" stroke-width="2" marker-end="url(#arrowhead)"/>
    
    <!-- Mainland Path Arrows -->
    <line x1="600" y1="510" x2="600" y2="550" stroke="#f4b677" stroke-width="2" marker-end="url(#arrowhead)"/>
    <line x1="600" y1="610" x2="600" y2="650" stroke="#f4b677" stroke-width="2" marker-end="url(#arrowhead)"/>
    
    <!-- Merge Paths -->
    <path d="M200 710 Q200 800 300 830" fill="none" stroke="#f4b677" stroke-width="2" marker-end="url(#arrowhead)"/>
    <path d="M600 710 Q600 800 500 830" fill="none" stroke="#f4b677" stroke-width="2" marker-end="url(#arrowhead)"/>
    
    <!-- Final Arrow -->
    <line x1="400" y1="860" x2="400" y2="900" stroke="#f4b677" stroke-width="2" marker-end="url(#arrowhead)"/>
    
    <!-- Path Labels -->
    <text x="250" y="380" text-anchor="middle" fill="#f4b677">Free Zone</text>
    <text x="550" y="380" text-anchor="middle" fill="#f4b677">Mainland</text>
</svg>